<mxfile host="app.diagrams.net" modified="2023-10-17T04:34:53.428Z" agent="Mozilla/5.0 (Windows NT 10.0; Win64; x64; rv:109.0) Gecko/20100101 Firefox/118.0" etag="miRs-nZp1aptwgepS6s6" version="22.0.4" type="github">
  <diagram name="Page-1" id="0e7Duqy020-uaTs2mcHn">
    <mxGraphModel dx="3420" dy="1163" grid="1" gridSize="10" guides="1" tooltips="1" connect="1" arrows="1" fold="1" page="1" pageScale="1" pageWidth="850" pageHeight="1100" math="0" shadow="0">
      <root>
        <mxCell id="0" />
        <mxCell id="1" parent="0" />
        <mxCell id="7ayOkPlbHj_rz-AtTsTn-5" value="SpaceMap" style="swimlane;fontStyle=1;align=center;verticalAlign=top;childLayout=stackLayout;horizontal=1;startSize=26;horizontalStack=0;resizeParent=1;resizeParentMax=0;resizeLast=0;collapsible=1;marginBottom=0;whiteSpace=wrap;html=1;" vertex="1" parent="1">
          <mxGeometry x="235" y="30" width="280" height="100" as="geometry">
            <mxRectangle x="285" y="180" width="100" height="30" as="alternateBounds" />
          </mxGeometry>
        </mxCell>
        <mxCell id="7ayOkPlbHj_rz-AtTsTn-6" value="- spaces: Space[][][]" style="text;strokeColor=none;fillColor=none;align=left;verticalAlign=top;spacingLeft=4;spacingRight=4;overflow=hidden;rotatable=0;points=[[0,0.5],[1,0.5]];portConstraint=eastwest;whiteSpace=wrap;html=1;" vertex="1" parent="7ayOkPlbHj_rz-AtTsTn-5">
          <mxGeometry y="26" width="280" height="26" as="geometry" />
        </mxCell>
        <mxCell id="7ayOkPlbHj_rz-AtTsTn-7" value="" style="line;strokeWidth=1;fillColor=none;align=left;verticalAlign=middle;spacingTop=-1;spacingLeft=3;spacingRight=3;rotatable=0;labelPosition=right;points=[];portConstraint=eastwest;strokeColor=inherit;" vertex="1" parent="7ayOkPlbHj_rz-AtTsTn-5">
          <mxGeometry y="52" width="280" height="8" as="geometry" />
        </mxCell>
        <mxCell id="7ayOkPlbHj_rz-AtTsTn-8" value="&lt;div&gt;# getSpace(x, y, z: int): Space&lt;div&gt;# setSpace(x, y, z: int, space: Space): void&lt;/div&gt;&lt;/div&gt;" style="text;strokeColor=none;fillColor=none;align=left;verticalAlign=top;spacingLeft=4;spacingRight=4;overflow=hidden;rotatable=0;points=[[0,0.5],[1,0.5]];portConstraint=eastwest;whiteSpace=wrap;html=1;" vertex="1" parent="7ayOkPlbHj_rz-AtTsTn-5">
          <mxGeometry y="60" width="280" height="40" as="geometry" />
        </mxCell>
        <mxCell id="7ayOkPlbHj_rz-AtTsTn-15" value="Space" style="swimlane;fontStyle=1;align=center;verticalAlign=top;childLayout=stackLayout;horizontal=1;startSize=26;horizontalStack=0;resizeParent=1;resizeParentMax=0;resizeLast=0;collapsible=1;marginBottom=0;whiteSpace=wrap;html=1;" vertex="1" parent="1">
          <mxGeometry x="210" y="200" width="320" height="250" as="geometry">
            <mxRectangle x="245" y="240" width="80" height="30" as="alternateBounds" />
          </mxGeometry>
        </mxCell>
        <mxCell id="7ayOkPlbHj_rz-AtTsTn-16" value="&lt;div&gt;- block: Block&lt;/div&gt;&lt;div&gt;- entity: Entity&lt;br&gt;&lt;/div&gt;&lt;div&gt;- items: Item[]&lt;/div&gt;" style="text;strokeColor=none;fillColor=none;align=left;verticalAlign=top;spacingLeft=4;spacingRight=4;overflow=hidden;rotatable=0;points=[[0,0.5],[1,0.5]];portConstraint=eastwest;whiteSpace=wrap;html=1;" vertex="1" parent="7ayOkPlbHj_rz-AtTsTn-15">
          <mxGeometry y="26" width="320" height="54" as="geometry" />
        </mxCell>
        <mxCell id="7ayOkPlbHj_rz-AtTsTn-17" value="" style="line;strokeWidth=1;fillColor=none;align=left;verticalAlign=middle;spacingTop=-1;spacingLeft=3;spacingRight=3;rotatable=0;labelPosition=right;points=[];portConstraint=eastwest;strokeColor=inherit;" vertex="1" parent="7ayOkPlbHj_rz-AtTsTn-15">
          <mxGeometry y="80" width="320" height="8" as="geometry" />
        </mxCell>
        <mxCell id="7ayOkPlbHj_rz-AtTsTn-18" value="&lt;div&gt;# getEntity(x, y, z: int): Entity&lt;/div&gt;&lt;div&gt;# setEntity(x, y, z: int, entity: Entity): void&lt;/div&gt;&lt;div&gt;&lt;br&gt;&lt;/div&gt;&lt;div&gt;# getBlock(x, y, z: int): Block&lt;/div&gt;&lt;div&gt;# setBlock(x, y, z: int, entity: Entity): void&lt;/div&gt;&lt;div&gt;&lt;br&gt;&lt;/div&gt;&lt;div&gt;# getItemCluster(x, y, z: int): ItemCluster&lt;/div&gt;&lt;div&gt;# setItemCluster(x, y, z: int, itemCluster: ItemCluster): void&lt;br&gt;&lt;/div&gt;&lt;div&gt;&lt;br&gt;&lt;/div&gt;&lt;div&gt;# tick(): void&lt;br&gt;&lt;/div&gt;" style="text;strokeColor=none;fillColor=none;align=left;verticalAlign=top;spacingLeft=4;spacingRight=4;overflow=hidden;rotatable=0;points=[[0,0.5],[1,0.5]];portConstraint=eastwest;whiteSpace=wrap;html=1;" vertex="1" parent="7ayOkPlbHj_rz-AtTsTn-15">
          <mxGeometry y="88" width="320" height="162" as="geometry" />
        </mxCell>
        <mxCell id="7ayOkPlbHj_rz-AtTsTn-19" value="Block" style="swimlane;fontStyle=1;align=center;verticalAlign=top;childLayout=stackLayout;horizontal=1;startSize=26;horizontalStack=0;resizeParent=1;resizeParentMax=0;resizeLast=0;collapsible=1;marginBottom=0;whiteSpace=wrap;html=1;" vertex="1" parent="1">
          <mxGeometry x="580" y="760" width="120" height="34" as="geometry">
            <mxRectangle x="320" y="560" width="70" height="30" as="alternateBounds" />
          </mxGeometry>
        </mxCell>
        <mxCell id="7ayOkPlbHj_rz-AtTsTn-21" value="" style="line;strokeWidth=1;fillColor=none;align=left;verticalAlign=middle;spacingTop=-1;spacingLeft=3;spacingRight=3;rotatable=0;labelPosition=right;points=[];portConstraint=eastwest;strokeColor=inherit;" vertex="1" parent="7ayOkPlbHj_rz-AtTsTn-19">
          <mxGeometry y="26" width="120" height="8" as="geometry" />
        </mxCell>
        <mxCell id="7ayOkPlbHj_rz-AtTsTn-23" value="Entity" style="swimlane;fontStyle=1;align=center;verticalAlign=top;childLayout=stackLayout;horizontal=1;startSize=26;horizontalStack=0;resizeParent=1;resizeParentMax=0;resizeLast=0;collapsible=1;marginBottom=0;whiteSpace=wrap;html=1;" vertex="1" parent="1">
          <mxGeometry x="20" y="510" width="230" height="140" as="geometry">
            <mxRectangle x="170" y="560" width="70" height="30" as="alternateBounds" />
          </mxGeometry>
        </mxCell>
        <mxCell id="7ayOkPlbHj_rz-AtTsTn-24" value="&lt;div&gt;- program: Program&lt;br&gt;&lt;/div&gt;&lt;div&gt;- inventory: Inventory&lt;br&gt;&lt;/div&gt;" style="text;strokeColor=none;fillColor=none;align=left;verticalAlign=top;spacingLeft=4;spacingRight=4;overflow=hidden;rotatable=0;points=[[0,0.5],[1,0.5]];portConstraint=eastwest;whiteSpace=wrap;html=1;" vertex="1" parent="7ayOkPlbHj_rz-AtTsTn-23">
          <mxGeometry y="26" width="230" height="34" as="geometry" />
        </mxCell>
        <mxCell id="7ayOkPlbHj_rz-AtTsTn-25" value="" style="line;strokeWidth=1;fillColor=none;align=left;verticalAlign=middle;spacingTop=-1;spacingLeft=3;spacingRight=3;rotatable=0;labelPosition=right;points=[];portConstraint=eastwest;strokeColor=inherit;" vertex="1" parent="7ayOkPlbHj_rz-AtTsTn-23">
          <mxGeometry y="60" width="230" height="8" as="geometry" />
        </mxCell>
        <mxCell id="7ayOkPlbHj_rz-AtTsTn-26" value="# setProgram(program Program): void" style="text;strokeColor=none;fillColor=none;align=left;verticalAlign=top;spacingLeft=4;spacingRight=4;overflow=hidden;rotatable=0;points=[[0,0.5],[1,0.5]];portConstraint=eastwest;whiteSpace=wrap;html=1;" vertex="1" parent="7ayOkPlbHj_rz-AtTsTn-23">
          <mxGeometry y="68" width="230" height="72" as="geometry" />
        </mxCell>
        <mxCell id="7ayOkPlbHj_rz-AtTsTn-27" value="Item" style="swimlane;fontStyle=1;align=center;verticalAlign=top;childLayout=stackLayout;horizontal=1;startSize=26;horizontalStack=0;resizeParent=1;resizeParentMax=0;resizeLast=0;collapsible=1;marginBottom=0;whiteSpace=wrap;html=1;" vertex="1" parent="1">
          <mxGeometry x="280" y="650" width="190" height="150" as="geometry">
            <mxRectangle x="470" y="710" width="70" height="30" as="alternateBounds" />
          </mxGeometry>
        </mxCell>
        <mxCell id="7ayOkPlbHj_rz-AtTsTn-28" value="&lt;div&gt;- MAX_AGE: int&lt;/div&gt;&lt;div&gt;- block: Block&lt;br&gt;&lt;/div&gt;" style="text;strokeColor=none;fillColor=none;align=left;verticalAlign=top;spacingLeft=4;spacingRight=4;overflow=hidden;rotatable=0;points=[[0,0.5],[1,0.5]];portConstraint=eastwest;whiteSpace=wrap;html=1;" vertex="1" parent="7ayOkPlbHj_rz-AtTsTn-27">
          <mxGeometry y="26" width="190" height="34" as="geometry" />
        </mxCell>
        <mxCell id="7ayOkPlbHj_rz-AtTsTn-29" value="" style="line;strokeWidth=1;fillColor=none;align=left;verticalAlign=middle;spacingTop=-1;spacingLeft=3;spacingRight=3;rotatable=0;labelPosition=right;points=[];portConstraint=eastwest;strokeColor=inherit;" vertex="1" parent="7ayOkPlbHj_rz-AtTsTn-27">
          <mxGeometry y="60" width="190" height="8" as="geometry" />
        </mxCell>
        <mxCell id="7ayOkPlbHj_rz-AtTsTn-30" value="# shouldItemDepsawn(): boolean" style="text;strokeColor=none;fillColor=none;align=left;verticalAlign=top;spacingLeft=4;spacingRight=4;overflow=hidden;rotatable=0;points=[[0,0.5],[1,0.5]];portConstraint=eastwest;whiteSpace=wrap;html=1;" vertex="1" parent="7ayOkPlbHj_rz-AtTsTn-27">
          <mxGeometry y="68" width="190" height="82" as="geometry" />
        </mxCell>
        <mxCell id="7ayOkPlbHj_rz-AtTsTn-46" value="&lt;div&gt;&lt;br&gt;&lt;/div&gt;&lt;div&gt;&lt;br&gt;&lt;/div&gt;" style="text;strokeColor=none;fillColor=none;align=left;verticalAlign=top;spacingLeft=4;spacingRight=4;overflow=hidden;rotatable=0;points=[[0,0.5],[1,0.5]];portConstraint=eastwest;whiteSpace=wrap;html=1;" vertex="1" parent="7ayOkPlbHj_rz-AtTsTn-27">
          <mxGeometry y="150" width="190" as="geometry" />
        </mxCell>
        <mxCell id="7ayOkPlbHj_rz-AtTsTn-32" value="" style="endArrow=open;endFill=1;endSize=12;html=1;rounded=0;entryX=0.5;entryY=0;entryDx=0;entryDy=0;exitX=0.924;exitY=1.008;exitDx=0;exitDy=0;exitPerimeter=0;" edge="1" parent="1" source="7ayOkPlbHj_rz-AtTsTn-18" target="7ayOkPlbHj_rz-AtTsTn-19">
          <mxGeometry width="160" relative="1" as="geometry">
            <mxPoint x="510" y="380" as="sourcePoint" />
            <mxPoint x="645" y="518" as="targetPoint" />
          </mxGeometry>
        </mxCell>
        <mxCell id="7ayOkPlbHj_rz-AtTsTn-33" value="" style="endArrow=open;endFill=1;endSize=12;html=1;rounded=0;entryX=0.5;entryY=0;entryDx=0;entryDy=0;exitX=0;exitY=1;exitDx=0;exitDy=0;" edge="1" parent="1" source="7ayOkPlbHj_rz-AtTsTn-15" target="7ayOkPlbHj_rz-AtTsTn-23">
          <mxGeometry width="160" relative="1" as="geometry">
            <mxPoint x="300" y="370" as="sourcePoint" />
            <mxPoint x="425" y="560" as="targetPoint" />
          </mxGeometry>
        </mxCell>
        <mxCell id="7ayOkPlbHj_rz-AtTsTn-38" value="" style="endArrow=open;endFill=1;endSize=12;html=1;rounded=0;exitX=0.5;exitY=1;exitDx=0;exitDy=0;entryX=0.5;entryY=0;entryDx=0;entryDy=0;" edge="1" parent="1" source="7ayOkPlbHj_rz-AtTsTn-5" target="7ayOkPlbHj_rz-AtTsTn-15">
          <mxGeometry width="160" relative="1" as="geometry">
            <mxPoint x="440" y="480" as="sourcePoint" />
            <mxPoint x="600" y="480" as="targetPoint" />
          </mxGeometry>
        </mxCell>
        <mxCell id="7ayOkPlbHj_rz-AtTsTn-39" value="&lt;div&gt;&lt;i&gt;&amp;lt;&amp;lt;Abstract&amp;gt;&amp;gt;&lt;/i&gt;&lt;br&gt;&lt;/div&gt;&lt;div&gt;Atom&lt;/div&gt;" style="swimlane;fontStyle=1;align=center;verticalAlign=top;childLayout=stackLayout;horizontal=1;startSize=40;horizontalStack=0;resizeParent=1;resizeParentMax=0;resizeLast=0;collapsible=1;marginBottom=0;whiteSpace=wrap;html=1;" vertex="1" parent="1">
          <mxGeometry x="140" y="830" width="160" height="154" as="geometry" />
        </mxCell>
        <mxCell id="7ayOkPlbHj_rz-AtTsTn-40" value="&lt;div&gt;- id: String&lt;/div&gt;&lt;div&gt;- age: int&lt;br&gt;&lt;/div&gt;" style="text;strokeColor=none;fillColor=none;align=left;verticalAlign=top;spacingLeft=4;spacingRight=4;overflow=hidden;rotatable=0;points=[[0,0.5],[1,0.5]];portConstraint=eastwest;whiteSpace=wrap;html=1;" vertex="1" parent="7ayOkPlbHj_rz-AtTsTn-39">
          <mxGeometry y="40" width="160" height="34" as="geometry" />
        </mxCell>
        <mxCell id="7ayOkPlbHj_rz-AtTsTn-41" value="" style="line;strokeWidth=1;fillColor=none;align=left;verticalAlign=middle;spacingTop=-1;spacingLeft=3;spacingRight=3;rotatable=0;labelPosition=right;points=[];portConstraint=eastwest;strokeColor=inherit;" vertex="1" parent="7ayOkPlbHj_rz-AtTsTn-39">
          <mxGeometry y="74" width="160" height="8" as="geometry" />
        </mxCell>
        <mxCell id="7ayOkPlbHj_rz-AtTsTn-42" value="&lt;div&gt;# getId(): String&lt;/div&gt;&lt;div&gt;# getAge(): int&lt;/div&gt;&lt;div&gt;&lt;br&gt;&lt;/div&gt;&lt;div&gt;# tick():void&lt;br&gt;&lt;/div&gt;" style="text;strokeColor=none;fillColor=none;align=left;verticalAlign=top;spacingLeft=4;spacingRight=4;overflow=hidden;rotatable=0;points=[[0,0.5],[1,0.5]];portConstraint=eastwest;whiteSpace=wrap;html=1;" vertex="1" parent="7ayOkPlbHj_rz-AtTsTn-39">
          <mxGeometry y="82" width="160" height="72" as="geometry" />
        </mxCell>
        <mxCell id="7ayOkPlbHj_rz-AtTsTn-43" value="" style="endArrow=block;dashed=1;endFill=0;endSize=12;html=1;rounded=0;exitX=0.5;exitY=1.042;exitDx=0;exitDy=0;exitPerimeter=0;entryX=0.25;entryY=0;entryDx=0;entryDy=0;" edge="1" parent="1" source="7ayOkPlbHj_rz-AtTsTn-26" target="7ayOkPlbHj_rz-AtTsTn-39">
          <mxGeometry width="160" relative="1" as="geometry">
            <mxPoint x="440" y="640" as="sourcePoint" />
            <mxPoint x="200" y="800" as="targetPoint" />
          </mxGeometry>
        </mxCell>
        <mxCell id="7ayOkPlbHj_rz-AtTsTn-44" value="" style="endArrow=block;dashed=1;endFill=0;endSize=12;html=1;rounded=0;exitX=0.5;exitY=1;exitDx=0;exitDy=0;entryX=1;entryY=0;entryDx=0;entryDy=0;" edge="1" parent="1" source="7ayOkPlbHj_rz-AtTsTn-19" target="7ayOkPlbHj_rz-AtTsTn-39">
          <mxGeometry width="160" relative="1" as="geometry">
            <mxPoint x="370.00000000000045" y="814.0319999999999" as="sourcePoint" />
            <mxPoint x="340" y="730" as="targetPoint" />
          </mxGeometry>
        </mxCell>
        <mxCell id="7ayOkPlbHj_rz-AtTsTn-45" value="" style="endArrow=block;dashed=1;endFill=0;endSize=12;html=1;rounded=0;entryX=0.5;entryY=0;entryDx=0;entryDy=0;exitX=0;exitY=0.75;exitDx=0;exitDy=0;" edge="1" parent="1" source="7ayOkPlbHj_rz-AtTsTn-27" target="7ayOkPlbHj_rz-AtTsTn-39">
          <mxGeometry width="160" relative="1" as="geometry">
            <mxPoint x="550" y="770" as="sourcePoint" />
            <mxPoint x="365" y="600" as="targetPoint" />
          </mxGeometry>
        </mxCell>
        <mxCell id="7ayOkPlbHj_rz-AtTsTn-54" value="ItemCluster" style="swimlane;fontStyle=1;align=center;verticalAlign=top;childLayout=stackLayout;horizontal=1;startSize=26;horizontalStack=0;resizeParent=1;resizeParentMax=0;resizeLast=0;collapsible=1;marginBottom=0;whiteSpace=wrap;html=1;" vertex="1" parent="1">
          <mxGeometry x="300" y="480" width="160" height="140" as="geometry">
            <mxRectangle x="480" y="550" width="70" height="30" as="alternateBounds" />
          </mxGeometry>
        </mxCell>
        <mxCell id="7ayOkPlbHj_rz-AtTsTn-55" value="- items: Item[]" style="text;strokeColor=none;fillColor=none;align=left;verticalAlign=top;spacingLeft=4;spacingRight=4;overflow=hidden;rotatable=0;points=[[0,0.5],[1,0.5]];portConstraint=eastwest;whiteSpace=wrap;html=1;" vertex="1" parent="7ayOkPlbHj_rz-AtTsTn-54">
          <mxGeometry y="26" width="160" height="24" as="geometry" />
        </mxCell>
        <mxCell id="7ayOkPlbHj_rz-AtTsTn-56" value="" style="line;strokeWidth=1;fillColor=none;align=left;verticalAlign=middle;spacingTop=-1;spacingLeft=3;spacingRight=3;rotatable=0;labelPosition=right;points=[];portConstraint=eastwest;strokeColor=inherit;" vertex="1" parent="7ayOkPlbHj_rz-AtTsTn-54">
          <mxGeometry y="50" width="160" height="8" as="geometry" />
        </mxCell>
        <mxCell id="7ayOkPlbHj_rz-AtTsTn-57" value="&lt;div&gt;# getItem(i: int): Item&lt;/div&gt;&lt;div&gt;# addItem(item: Item): void&lt;/div&gt;&lt;div&gt;# removeItem(): Item&lt;br&gt;&lt;/div&gt;" style="text;strokeColor=none;fillColor=none;align=left;verticalAlign=top;spacingLeft=4;spacingRight=4;overflow=hidden;rotatable=0;points=[[0,0.5],[1,0.5]];portConstraint=eastwest;whiteSpace=wrap;html=1;" vertex="1" parent="7ayOkPlbHj_rz-AtTsTn-54">
          <mxGeometry y="58" width="160" height="82" as="geometry" />
        </mxCell>
        <mxCell id="7ayOkPlbHj_rz-AtTsTn-58" value="&lt;div&gt;&lt;br&gt;&lt;/div&gt;&lt;div&gt;&lt;br&gt;&lt;/div&gt;" style="text;strokeColor=none;fillColor=none;align=left;verticalAlign=top;spacingLeft=4;spacingRight=4;overflow=hidden;rotatable=0;points=[[0,0.5],[1,0.5]];portConstraint=eastwest;whiteSpace=wrap;html=1;" vertex="1" parent="7ayOkPlbHj_rz-AtTsTn-54">
          <mxGeometry y="140" width="160" as="geometry" />
        </mxCell>
        <mxCell id="7ayOkPlbHj_rz-AtTsTn-59" value="" style="endArrow=open;endFill=1;endSize=12;html=1;rounded=0;exitX=0.5;exitY=1;exitDx=0;exitDy=0;entryX=0.5;entryY=0;entryDx=0;entryDy=0;" edge="1" parent="1" source="7ayOkPlbHj_rz-AtTsTn-54" target="7ayOkPlbHj_rz-AtTsTn-27">
          <mxGeometry width="160" relative="1" as="geometry">
            <mxPoint x="440" y="640" as="sourcePoint" />
            <mxPoint x="600" y="640" as="targetPoint" />
          </mxGeometry>
        </mxCell>
        <mxCell id="7ayOkPlbHj_rz-AtTsTn-60" value="" style="endArrow=open;endFill=1;endSize=12;html=1;rounded=0;entryX=0.5;entryY=0;entryDx=0;entryDy=0;exitX=0.531;exitY=0.999;exitDx=0;exitDy=0;exitPerimeter=0;" edge="1" parent="1" source="7ayOkPlbHj_rz-AtTsTn-18" target="7ayOkPlbHj_rz-AtTsTn-54">
          <mxGeometry width="160" relative="1" as="geometry">
            <mxPoint x="295" y="280" as="sourcePoint" />
            <mxPoint x="390" y="570" as="targetPoint" />
          </mxGeometry>
        </mxCell>
        <mxCell id="7ayOkPlbHj_rz-AtTsTn-62" value="Program" style="swimlane;fontStyle=1;align=center;verticalAlign=top;childLayout=stackLayout;horizontal=1;startSize=26;horizontalStack=0;resizeParent=1;resizeParentMax=0;resizeLast=0;collapsible=1;marginBottom=0;whiteSpace=wrap;html=1;" vertex="1" parent="1">
          <mxGeometry x="-280" y="710" width="170" height="120" as="geometry" />
        </mxCell>
        <mxCell id="7ayOkPlbHj_rz-AtTsTn-63" value="&lt;div&gt;# nextFunction: Function&lt;/div&gt;&lt;div&gt;- hasTerminated: boolean&lt;br&gt;&lt;/div&gt;" style="text;strokeColor=none;fillColor=none;align=left;verticalAlign=top;spacingLeft=4;spacingRight=4;overflow=hidden;rotatable=0;points=[[0,0.5],[1,0.5]];portConstraint=eastwest;whiteSpace=wrap;html=1;" vertex="1" parent="7ayOkPlbHj_rz-AtTsTn-62">
          <mxGeometry y="26" width="170" height="44" as="geometry" />
        </mxCell>
        <mxCell id="7ayOkPlbHj_rz-AtTsTn-64" value="" style="line;strokeWidth=1;fillColor=none;align=left;verticalAlign=middle;spacingTop=-1;spacingLeft=3;spacingRight=3;rotatable=0;labelPosition=right;points=[];portConstraint=eastwest;strokeColor=inherit;" vertex="1" parent="7ayOkPlbHj_rz-AtTsTn-62">
          <mxGeometry y="70" width="170" height="8" as="geometry" />
        </mxCell>
        <mxCell id="7ayOkPlbHj_rz-AtTsTn-65" value="&lt;div&gt;# executeNextFunction(): void&lt;/div&gt;&lt;div&gt;# hasTerminated(): boolean&lt;br&gt;&lt;/div&gt;" style="text;strokeColor=none;fillColor=none;align=left;verticalAlign=top;spacingLeft=4;spacingRight=4;overflow=hidden;rotatable=0;points=[[0,0.5],[1,0.5]];portConstraint=eastwest;whiteSpace=wrap;html=1;" vertex="1" parent="7ayOkPlbHj_rz-AtTsTn-62">
          <mxGeometry y="78" width="170" height="42" as="geometry" />
        </mxCell>
        <mxCell id="7ayOkPlbHj_rz-AtTsTn-66" value="" style="endArrow=open;endFill=1;endSize=12;html=1;rounded=0;exitX=0;exitY=0.5;exitDx=0;exitDy=0;entryX=0.5;entryY=0;entryDx=0;entryDy=0;" edge="1" parent="1" source="7ayOkPlbHj_rz-AtTsTn-24" target="7ayOkPlbHj_rz-AtTsTn-62">
          <mxGeometry width="160" relative="1" as="geometry">
            <mxPoint x="690" y="530" as="sourcePoint" />
            <mxPoint x="850" y="530" as="targetPoint" />
          </mxGeometry>
        </mxCell>
        <mxCell id="7ayOkPlbHj_rz-AtTsTn-67" value="Inventory" style="swimlane;fontStyle=1;align=center;verticalAlign=top;childLayout=stackLayout;horizontal=1;startSize=26;horizontalStack=0;resizeParent=1;resizeParentMax=0;resizeLast=0;collapsible=1;marginBottom=0;whiteSpace=wrap;html=1;" vertex="1" parent="1">
          <mxGeometry x="-100" y="710" width="160" height="100" as="geometry" />
        </mxCell>
        <mxCell id="7ayOkPlbHj_rz-AtTsTn-68" value="- items: Item[]" style="text;strokeColor=none;fillColor=none;align=left;verticalAlign=top;spacingLeft=4;spacingRight=4;overflow=hidden;rotatable=0;points=[[0,0.5],[1,0.5]];portConstraint=eastwest;whiteSpace=wrap;html=1;" vertex="1" parent="7ayOkPlbHj_rz-AtTsTn-67">
          <mxGeometry y="26" width="160" height="26" as="geometry" />
        </mxCell>
        <mxCell id="7ayOkPlbHj_rz-AtTsTn-69" value="" style="line;strokeWidth=1;fillColor=none;align=left;verticalAlign=middle;spacingTop=-1;spacingLeft=3;spacingRight=3;rotatable=0;labelPosition=right;points=[];portConstraint=eastwest;strokeColor=inherit;" vertex="1" parent="7ayOkPlbHj_rz-AtTsTn-67">
          <mxGeometry y="52" width="160" height="8" as="geometry" />
        </mxCell>
        <mxCell id="7ayOkPlbHj_rz-AtTsTn-70" value="&lt;div&gt;# getItems(): Item[]&lt;br&gt;&lt;/div&gt;&lt;div&gt;# addItem(item: Item): void&lt;/div&gt;" style="text;strokeColor=none;fillColor=none;align=left;verticalAlign=top;spacingLeft=4;spacingRight=4;overflow=hidden;rotatable=0;points=[[0,0.5],[1,0.5]];portConstraint=eastwest;whiteSpace=wrap;html=1;" vertex="1" parent="7ayOkPlbHj_rz-AtTsTn-67">
          <mxGeometry y="60" width="160" height="40" as="geometry" />
        </mxCell>
        <mxCell id="7ayOkPlbHj_rz-AtTsTn-71" value="" style="endArrow=open;endFill=1;endSize=12;html=1;rounded=0;exitX=1;exitY=0.5;exitDx=0;exitDy=0;entryX=0;entryY=0.5;entryDx=0;entryDy=0;" edge="1" parent="1" source="7ayOkPlbHj_rz-AtTsTn-28" target="7ayOkPlbHj_rz-AtTsTn-19">
          <mxGeometry width="160" relative="1" as="geometry">
            <mxPoint x="690" y="530" as="sourcePoint" />
            <mxPoint x="850" y="530" as="targetPoint" />
          </mxGeometry>
        </mxCell>
        <mxCell id="7ayOkPlbHj_rz-AtTsTn-72" value="" style="endArrow=open;endFill=1;endSize=12;html=1;rounded=0;entryX=0.5;entryY=0;entryDx=0;entryDy=0;exitX=0;exitY=0.75;exitDx=0;exitDy=0;" edge="1" parent="1" source="7ayOkPlbHj_rz-AtTsTn-23" target="7ayOkPlbHj_rz-AtTsTn-67">
          <mxGeometry width="160" relative="1" as="geometry">
            <mxPoint x="50" y="610" as="sourcePoint" />
            <mxPoint x="-185" y="720" as="targetPoint" />
          </mxGeometry>
        </mxCell>
        <mxCell id="7ayOkPlbHj_rz-AtTsTn-73" value="" style="endArrow=open;endFill=1;endSize=12;html=1;rounded=0;exitX=1;exitY=0.5;exitDx=0;exitDy=0;entryX=0;entryY=0.5;entryDx=0;entryDy=0;" edge="1" parent="1" source="7ayOkPlbHj_rz-AtTsTn-67" target="7ayOkPlbHj_rz-AtTsTn-30">
          <mxGeometry width="160" relative="1" as="geometry">
            <mxPoint x="400" y="550" as="sourcePoint" />
            <mxPoint x="400" y="620" as="targetPoint" />
          </mxGeometry>
        </mxCell>
      </root>
    </mxGraphModel>
  </diagram>
</mxfile>
